<svg width="15" height="14" viewBox="0 0 15 14" fill="none" xmlns="http://www.w3.org/2000/svg">
<path d="M7.49996 12.6292C7.31913 12.6292 7.14413 12.6058 6.99829 12.5533C4.76996 11.7892 1.22913 9.07668 1.22913 5.06918C1.22913 3.02752 2.87996 1.37085 4.90996 1.37085C5.89579 1.37085 6.81746 1.75585 7.49996 2.44418C8.18246 1.75585 9.10413 1.37085 10.09 1.37085C12.12 1.37085 13.7708 3.03335 13.7708 5.06918C13.7708 9.08252 10.23 11.7892 8.00163 12.5533C7.85579 12.6058 7.68079 12.6292 7.49996 12.6292ZM4.90996 2.24585C3.36413 2.24585 2.10413 3.51168 2.10413 5.06918C2.10413 9.05335 5.93663 11.27 7.28413 11.7308C7.38913 11.7658 7.61663 11.7658 7.72163 11.7308C9.06329 11.27 12.9016 9.05918 12.9016 5.06918C12.9016 3.51168 11.6416 2.24585 10.0958 2.24585C9.20913 2.24585 8.38663 2.66002 7.85579 3.37752C7.69246 3.59918 7.31913 3.59918 7.15579 3.37752C6.61329 2.65418 5.79663 2.24585 4.90996 2.24585Z" fill="white"/>
</svg>
