<svg width="15" height="14" viewBox="0 0 15 14" fill="none" xmlns="http://www.w3.org/2000/svg">
<path d="M6.91663 12.1041C3.77829 12.1041 1.22913 9.55496 1.22913 6.41663C1.22913 3.27829 3.77829 0.729126 6.91663 0.729126C10.055 0.729126 12.6041 3.27829 12.6041 6.41663C12.6041 9.55496 10.055 12.1041 6.91663 12.1041ZM6.91663 1.60413C4.26246 1.60413 2.10413 3.76246 2.10413 6.41663C2.10413 9.07079 4.26246 11.2291 6.91663 11.2291C9.57079 11.2291 11.7291 9.07079 11.7291 6.41663C11.7291 3.76246 9.57079 1.60413 6.91663 1.60413Z" fill="black"/>
<path d="M12.2601 13.2942C12.2134 13.2942 12.1667 13.2883 12.1259 13.2825C11.8517 13.2475 11.3559 13.0608 11.0759 12.2267C10.9301 11.7892 10.9826 11.3517 11.2217 11.0192C11.4609 10.6867 11.8634 10.5 12.3242 10.5C12.9192 10.5 13.3859 10.7275 13.5959 11.13C13.8059 11.5325 13.7476 12.0458 13.4151 12.5417C13.0009 13.1658 12.5517 13.2942 12.2601 13.2942ZM11.9101 11.9525C12.0092 12.2558 12.1492 12.4075 12.2426 12.4192C12.3359 12.4308 12.5109 12.32 12.6917 12.0575C12.8609 11.8067 12.8726 11.6258 12.8317 11.5442C12.7909 11.4625 12.6276 11.375 12.3242 11.375C12.1434 11.375 12.0092 11.4333 11.9334 11.5325C11.8634 11.6317 11.8517 11.7833 11.9101 11.9525Z" fill="black"/>
</svg>
