<svg width="15" height="14" viewBox="0 0 15 14" fill="none" xmlns="http://www.w3.org/2000/svg">
<path d="M9.83329 5.10413C9.59413 5.10413 9.39579 4.90579 9.39579 4.66663V2.62496C9.39579 1.99496 9.00496 1.60413 8.37496 1.60413H6.62496C5.99496 1.60413 5.60413 1.99496 5.60413 2.62496V4.66663C5.60413 4.90579 5.40579 5.10413 5.16663 5.10413C4.92746 5.10413 4.72913 4.90579 4.72913 4.66663V2.62496C4.72913 1.51079 5.51079 0.729126 6.62496 0.729126H8.37496C9.48913 0.729126 10.2708 1.51079 10.2708 2.62496V4.66663C10.2708 4.90579 10.0725 5.10413 9.83329 5.10413Z" fill="black"/>
<path d="M5.16666 10.3716C4.92749 10.3716 4.72916 10.1733 4.72916 9.93413C4.72916 9.68913 4.92749 9.49663 5.16666 9.49663H12.0267C12.2017 9.49663 12.3358 9.34496 12.3183 9.16996L11.9217 5.85079C11.7817 4.71913 11.5833 3.79163 9.59999 3.79163H5.39999C3.41666 3.79163 3.21832 4.71913 3.08416 5.85079L2.55916 10.2258C2.38999 11.6608 2.83332 12.8333 4.88082 12.8333H10.1192C11.9625 12.8333 12.505 11.8825 12.4758 10.6458C12.47 10.4883 12.3417 10.3716 12.1842 10.3716H5.16666Z" fill="black"/>
</svg>
