<svg width="21" height="21" viewBox="0 0 21 21" fill="none" xmlns="http://www.w3.org/2000/svg">
<path d="M10.6353 18.5741C10.377 18.5741 10.127 18.5407 9.91867 18.4657C6.73534 17.3741 1.677 13.4991 1.677 7.77408C1.677 4.85741 4.03534 2.49074 6.93534 2.49074C8.34367 2.49074 9.66034 3.04074 10.6353 4.02408C11.6103 3.04074 12.927 2.49074 14.3353 2.49074C17.2353 2.49074 19.5937 4.86574 19.5937 7.77408C19.5937 13.5074 14.5353 17.3741 11.352 18.4657C11.1437 18.5407 10.8937 18.5741 10.6353 18.5741ZM6.93534 3.74074C4.727 3.74074 2.927 5.54908 2.927 7.77408C2.927 13.4657 8.402 16.6324 10.327 17.2907C10.477 17.3407 10.802 17.3407 10.952 17.2907C12.8687 16.6324 18.352 13.4741 18.352 7.77408C18.352 5.54908 16.552 3.74074 14.3437 3.74074C13.077 3.74074 11.902 4.33241 11.1437 5.35741C10.9103 5.67408 10.377 5.67408 10.1437 5.35741C9.36867 4.32408 8.202 3.74074 6.93534 3.74074Z" fill="black"/>
</svg>
