<svg width="81" height="80" viewBox="0 0 81 80" fill="none" xmlns="http://www.w3.org/2000/svg">
<g filter="url(#filter0_d_6_731)">
<circle cx="40.6846" cy="32" r="16" fill="black"/>
<path d="M44.6846 32.5H36.6846C36.4112 32.5 36.1846 32.2733 36.1846 32C36.1846 31.7267 36.4112 31.5 36.6846 31.5H44.6846C44.9579 31.5 45.1846 31.7267 45.1846 32C45.1846 32.2733 44.9579 32.5 44.6846 32.5Z" fill="#FCFCFC"/>
<path d="M40.6846 36.5C40.4112 36.5 40.1846 36.2733 40.1846 36V28C40.1846 27.7267 40.4112 27.5 40.6846 27.5C40.9579 27.5 41.1846 27.7267 41.1846 28V36C41.1846 36.2733 40.9579 36.5 40.6846 36.5Z" fill="#FCFCFC"/>
</g>
<defs>
<filter id="filter0_d_6_731" x="0.68457" y="0" width="80" height="80" filterUnits="userSpaceOnUse" color-interpolation-filters="sRGB">
<feFlood flood-opacity="0" result="BackgroundImageFix"/>
<feColorMatrix in="SourceAlpha" type="matrix" values="0 0 0 0 0 0 0 0 0 0 0 0 0 0 0 0 0 0 127 0" result="hardAlpha"/>
<feOffset dy="8"/>
<feGaussianBlur stdDeviation="12"/>
<feComposite in2="hardAlpha" operator="out"/>
<feColorMatrix type="matrix" values="0 0 0 0 0 0 0 0 0 0 0 0 0 0 0 0 0 0 0.08 0"/>
<feBlend mode="normal" in2="BackgroundImageFix" result="effect1_dropShadow_6_731"/>
<feBlend mode="normal" in="SourceGraphic" in2="effect1_dropShadow_6_731" result="shape"/>
</filter>
</defs>
</svg>
