<svg width="21" height="21" viewBox="0 0 21 21" fill="none" xmlns="http://www.w3.org/2000/svg">
<path d="M9.802 17.8241C5.31867 17.8241 1.677 14.1824 1.677 9.69908C1.677 5.21574 5.31867 1.57408 9.802 1.57408C14.2853 1.57408 17.927 5.21574 17.927 9.69908C17.927 14.1824 14.2853 17.8241 9.802 17.8241ZM9.802 2.82408C6.01033 2.82408 2.927 5.90741 2.927 9.69908C2.927 13.4907 6.01033 16.5741 9.802 16.5741C13.5937 16.5741 16.677 13.4907 16.677 9.69908C16.677 5.90741 13.5937 2.82408 9.802 2.82408Z" fill="#C7C7C7"/>
<path d="M17.4353 19.5241C17.3687 19.5241 17.302 19.5157 17.2437 19.5074C16.852 19.4574 16.1437 19.1907 15.7437 17.9991C15.5353 17.3741 15.6103 16.7491 15.952 16.2741C16.2937 15.7991 16.8687 15.5324 17.527 15.5324C18.377 15.5324 19.0437 15.8574 19.3437 16.4324C19.6437 17.0074 19.5603 17.7407 19.0853 18.4491C18.4937 19.3407 17.852 19.5241 17.4353 19.5241ZM16.9353 17.6074C17.077 18.0407 17.277 18.2574 17.4103 18.2741C17.5437 18.2907 17.7937 18.1324 18.052 17.7574C18.2937 17.3991 18.3103 17.1407 18.252 17.0241C18.1937 16.9074 17.9603 16.7824 17.527 16.7824C17.2687 16.7824 17.077 16.8657 16.9687 17.0074C16.8687 17.1491 16.852 17.3657 16.9353 17.6074Z" fill="#C7C7C7"/>
</svg>
