<svg width="21" height="21" viewBox="0 0 21 21" fill="none" xmlns="http://www.w3.org/2000/svg">
<path d="M13.9687 7.82408C13.627 7.82408 13.3437 7.54074 13.3437 7.19908V4.28241C13.3437 3.38241 12.7853 2.82408 11.8853 2.82408H9.38534C8.48534 2.82408 7.927 3.38241 7.927 4.28241V7.19908C7.927 7.54074 7.64367 7.82408 7.302 7.82408C6.96034 7.82408 6.677 7.54074 6.677 7.19908V4.28241C6.677 2.69074 7.79367 1.57408 9.38534 1.57408H11.8853C13.477 1.57408 14.5937 2.69074 14.5937 4.28241V7.19908C14.5937 7.54074 14.3103 7.82408 13.9687 7.82408Z" fill="white"/>
<path d="M7.30187 15.3491C6.96021 15.3491 6.67687 15.0657 6.67687 14.7241C6.67687 14.3741 6.96021 14.0991 7.30187 14.0991H17.1019C17.3519 14.0991 17.5435 13.8824 17.5185 13.6324L16.9519 8.89074C16.7519 7.27408 16.4685 5.94908 13.6352 5.94908H7.6352C4.80187 5.94908 4.51854 7.27408 4.32687 8.89074L3.57687 15.1407C3.33521 17.1907 3.96854 18.8657 6.89354 18.8657H14.3769C17.0102 18.8657 17.7852 17.5074 17.7435 15.7407C17.7352 15.5157 17.5519 15.3491 17.3269 15.3491H7.30187Z" fill="white"/>
</svg>
