<svg width="21" height="21" viewBox="0 0 21 21" fill="none" xmlns="http://www.w3.org/2000/svg">
<path d="M10.6352 11.1574C7.99351 11.1574 5.84351 9.00741 5.84351 6.36574C5.84351 3.72408 7.99351 1.57408 10.6352 1.57408C13.2768 1.57408 15.4268 3.72408 15.4268 6.36574C15.4268 9.00741 13.2768 11.1574 10.6352 11.1574ZM10.6352 2.82408C8.68517 2.82408 7.09351 4.41574 7.09351 6.36574C7.09351 8.31574 8.68517 9.90741 10.6352 9.90741C12.5852 9.90741 14.1768 8.31574 14.1768 6.36574C14.1768 4.41574 12.5852 2.82408 10.6352 2.82408Z" fill="black"/>
<path d="M17.7937 19.4907C17.452 19.4907 17.1687 19.2074 17.1687 18.8657C17.1687 15.9907 14.2354 13.6574 10.6354 13.6574C7.03538 13.6574 4.10205 15.9907 4.10205 18.8657C4.10205 19.2074 3.81872 19.4907 3.47705 19.4907C3.13538 19.4907 2.85205 19.2074 2.85205 18.8657C2.85205 15.3074 6.34371 12.4074 10.6354 12.4074C14.927 12.4074 18.4187 15.3074 18.4187 18.8657C18.4187 19.2074 18.1354 19.4907 17.7937 19.4907Z" fill="black"/>
</svg>
