<svg width="15" height="14" viewBox="0 0 15 14" fill="none" xmlns="http://www.w3.org/2000/svg">
<path d="M7.50004 7.43746C5.65087 7.43746 4.14587 5.93246 4.14587 4.08329C4.14587 2.23413 5.65087 0.729126 7.50004 0.729126C9.34921 0.729126 10.8542 2.23413 10.8542 4.08329C10.8542 5.93246 9.34921 7.43746 7.50004 7.43746ZM7.50004 1.60413C6.13504 1.60413 5.02087 2.71829 5.02087 4.08329C5.02087 5.44829 6.13504 6.56246 7.50004 6.56246C8.86504 6.56246 9.97921 5.44829 9.97921 4.08329C9.97921 2.71829 8.86504 1.60413 7.50004 1.60413Z" fill="white"/>
<path d="M12.5109 13.2708C12.2718 13.2708 12.0734 13.0725 12.0734 12.8333C12.0734 10.8208 10.0201 9.1875 7.50009 9.1875C4.98009 9.1875 2.92676 10.8208 2.92676 12.8333C2.92676 13.0725 2.72842 13.2708 2.48926 13.2708C2.25009 13.2708 2.05176 13.0725 2.05176 12.8333C2.05176 10.3425 4.49592 8.3125 7.50009 8.3125C10.5043 8.3125 12.9484 10.3425 12.9484 12.8333C12.9484 13.0725 12.7501 13.2708 12.5109 13.2708Z" fill="white"/>
</svg>
